<?xml version="1.0" encoding="UTF-8" standalone="no"?>
<!DOCTYPE svg PUBLIC "-//W3C//DTD SVG 1.1//EN" "http://www.w3.org/Graphics/SVG/1.1/DTD/svg11.dtd">
<svg width="100%" height="100%" viewBox="0 0 148 147" version="1.1" xmlns="http://www.w3.org/2000/svg" xmlns:xlink="http://www.w3.org/1999/xlink" xml:space="preserve" xmlns:serif="http://www.serif.com/" style="fill-rule:evenodd;clip-rule:evenodd;">
    <path id="polygon4" d="M146.154,84.502L135.325,91.412L141.016,102.926L128.763,106.786L131.285,119.381L118.452,119.952L117.642,132.771L105.099,130.007L100.989,142.176L89.595,136.242L82.471,146.93L72.987,138.266L63.354,146.764L56.439,135.938L44.927,141.635L41.062,129.385L28.467,131.913L27.888,119.081L15.068,118.279L17.827,105.734L5.656,101.628L11.587,90.234L0.9,83.109L9.563,73.627L1.067,63.991L11.896,57.081L6.204,45.566L18.457,41.707L15.936,29.111L28.768,28.54L29.577,15.719L42.121,18.484L46.23,6.314L57.624,12.249L64.748,1.562L74.232,10.225L83.867,1.727L90.781,12.552L102.292,6.855L106.16,19.106L118.753,16.578L119.332,29.411L132.153,30.213L129.394,42.758L141.566,46.864L135.633,58.258L146.322,65.383L137.658,74.866L146.154,84.502Z" style="fill:rgb(131,115,45);fill-rule:nonzero;"/>
    <path id="path8" d="M73.754,132.176C41.915,132.176 16.012,106.274 16.012,74.434C16.012,42.594 41.915,16.692 73.754,16.692C105.593,16.692 131.496,42.595 131.496,74.434C131.496,106.273 105.593,132.176 73.754,132.176Z" style="fill:white;fill-rule:nonzero;"/>
    <circle id="circle10" cx="73.754" cy="74.435" r="52.923" style="fill:none;stroke:rgb(131,115,45);stroke-width:0.3px;"/>
    <g id="g88">
        <g id="g86">
            <path id="path84" d="M127.062,125.363L125.295,125.363L125.295,130.933L123.754,130.933L123.754,125.363L121.985,125.363L121.985,124.021L127.059,124.021L127.062,125.363ZM135.065,130.934L133.617,130.934L133.617,126.036L133.587,126.036L131.984,130.934L130.942,130.934L129.341,126.036L129.311,126.036L129.311,130.934L127.861,130.934L127.861,124.022L129.917,124.022L131.472,128.569L133.028,124.022L135.067,124.022L135.065,130.934ZM94.386,114.09C94.176,114.731 93.883,115.19 93.507,115.464C93.132,115.739 92.609,115.876 91.941,115.876C91.586,115.876 91.185,115.852 90.748,115.8L90.748,114.014C90.831,114.024 90.913,114.035 90.995,114.044C91.35,114.075 91.648,114.09 91.888,114.09C92.126,114.059 92.311,113.95 92.444,113.762C92.579,113.574 92.643,113.352 92.643,113.098C92.643,112.925 92.617,112.762 92.561,112.61L90.061,105.209L92.149,105.209L93.756,110.61L93.784,110.61L95.336,105.209L97.355,105.209L94.386,114.09ZM88.52,105.207L89.951,105.207L89.951,106.657L88.52,106.657L88.52,110.564C88.52,110.931 88.577,111.173 88.685,111.295C88.795,111.417 89.015,111.48 89.344,111.48C89.564,111.48 89.765,111.459 89.948,111.417L89.948,113.11C89.676,113.162 89.295,113.186 88.808,113.186C88.478,113.186 88.183,113.162 87.922,113.11C87.661,113.059 87.427,112.964 87.221,112.829C87.015,112.69 86.854,112.498 86.742,112.249C86.627,112 86.568,111.686 86.568,111.311L86.568,106.656L85.387,106.656L85.387,105.206L86.568,105.206L86.568,102.84L88.519,102.84L88.52,105.207ZM84.509,103.986L82.558,103.986L82.558,102.2L84.509,102.2L84.509,103.986ZM82.559,105.207L84.51,105.207L84.51,113.098L82.559,113.098L82.559,105.207ZM79.014,102.2L80.965,102.2L80.965,113.097L79.014,113.097L79.014,102.2ZM70.992,107.634C71.018,107.147 71.13,106.731 71.32,106.391C71.512,106.049 71.766,105.776 72.084,105.567C72.398,105.358 72.748,105.212 73.128,105.126C73.508,105.04 73.909,104.996 74.33,104.996C74.724,104.996 75.101,105.024 75.463,105.087C75.825,105.15 76.152,105.26 76.452,105.423C76.749,105.586 76.99,105.819 77.173,106.117C77.356,106.417 77.445,106.791 77.445,107.237L77.445,111.343C77.445,111.74 77.466,112.093 77.508,112.406C77.549,112.717 77.611,112.947 77.694,113.098L75.716,113.098C75.633,112.813 75.588,112.559 75.578,112.335C75.285,112.671 74.93,112.918 74.514,113.075C74.097,113.232 73.656,113.312 73.188,113.312C72.474,113.312 71.892,113.111 71.443,112.708C70.996,112.307 70.77,111.718 70.77,110.943C70.77,110.517 70.836,110.157 70.969,109.861C71.102,109.566 71.282,109.333 71.505,109.16C71.73,108.986 71.979,108.853 72.254,108.764C72.526,108.672 72.84,108.602 73.188,108.549C73.373,108.52 73.584,108.488 73.82,108.458C74.408,108.376 74.834,108.28 75.098,108.168C75.364,108.057 75.496,107.837 75.496,107.514C75.496,107.085 75.386,106.8 75.166,106.659C74.944,106.516 74.635,106.446 74.23,106.446C73.845,106.446 73.543,106.54 73.325,106.727C73.103,106.915 72.975,107.217 72.938,107.634L70.992,107.634ZM75.498,109.236C75.388,109.338 75.244,109.414 75.063,109.465C74.884,109.516 74.644,109.567 74.342,109.618C74.15,109.648 73.994,109.674 73.875,109.693C73.508,109.775 73.225,109.9 73.021,110.068C72.822,110.236 72.719,110.498 72.719,110.853C72.719,111.23 72.827,111.493 73.042,111.64C73.257,111.786 73.548,111.861 73.915,111.861C74.27,111.861 74.561,111.795 74.78,111.663C74.999,111.531 75.16,111.365 75.259,111.167C75.361,110.968 75.424,110.775 75.451,110.587C75.476,110.399 75.492,110.218 75.492,110.045L75.492,109.236L75.498,109.236ZM69.59,113.098L67.736,113.098L67.736,111.999L67.695,111.999C67.459,112.427 67.143,112.752 66.756,112.977C66.364,113.202 65.957,113.313 65.527,113.313C65.023,113.313 64.602,113.235 64.263,113.084C63.924,112.932 63.657,112.712 63.459,112.428C63.261,112.145 63.125,111.809 63.047,111.42C62.969,111.034 62.93,110.581 62.93,110.063L62.93,105.209L64.881,105.209L64.881,109.666C64.881,110.328 64.98,110.815 65.176,111.131C65.373,111.446 65.691,111.607 66.131,111.607C66.662,111.607 67.047,111.429 67.285,111.08C67.521,110.728 67.64,110.152 67.64,109.348L67.64,105.212L69.591,105.212L69.59,113.098ZM60.606,114.121L59.218,112.717C58.55,113.145 57.757,113.358 56.842,113.358C56.1,113.358 55.429,113.213 54.83,112.923C54.228,112.633 53.722,112.231 53.305,111.717C52.888,111.203 52.57,110.6 52.35,109.908C52.13,109.216 52.02,108.478 52.02,107.695C52.02,106.89 52.13,106.138 52.35,105.435C52.57,104.734 52.888,104.121 53.305,103.597C53.722,103.073 54.23,102.664 54.83,102.374C55.43,102.084 56.101,101.938 56.842,101.938C57.583,101.938 58.255,102.084 58.855,102.374C59.457,102.664 59.965,103.071 60.387,103.597C60.808,104.119 61.126,104.734 61.342,105.435C61.558,106.138 61.665,106.892 61.665,107.695C61.665,108.478 61.555,109.214 61.335,109.9C61.115,110.588 60.799,111.191 60.387,111.71L61.61,112.945L60.606,114.121ZM57.79,109.068L58.901,110.198C59.304,109.577 59.505,108.743 59.505,107.695C59.505,107.195 59.455,106.722 59.354,106.275C59.253,105.828 59.097,105.431 58.887,105.085C58.676,104.739 58.399,104.465 58.056,104.261C57.713,104.059 57.307,103.956 56.84,103.956C56.373,103.956 55.968,104.059 55.624,104.261C55.281,104.465 55.003,104.74 54.793,105.085C54.583,105.432 54.427,105.828 54.326,106.275C54.223,106.724 54.175,107.197 54.175,107.695C54.175,108.174 54.225,108.629 54.326,109.06C54.427,109.494 54.584,109.881 54.8,110.228C55.015,110.574 55.292,110.844 55.631,111.043C55.97,111.241 56.373,111.34 56.84,111.34C57.069,111.34 57.255,111.332 57.397,111.318C57.541,111.304 57.642,111.259 57.708,111.189L56.788,110.256L57.79,109.068ZM93.108,91.157L91.941,91.157L91.941,89.707L93.108,89.707L93.108,89.096C93.108,88.374 93.312,87.794 93.719,87.356C94.127,86.919 94.715,86.702 95.485,86.702C95.631,86.702 95.842,86.712 96.119,86.731C96.302,86.752 96.433,86.761 96.515,86.761L96.515,88.379C96.286,88.348 96.048,88.333 95.801,88.333C95.535,88.333 95.345,88.402 95.231,88.539C95.118,88.676 95.059,88.908 95.059,89.232L95.059,89.707L96.408,89.707L96.408,91.157L95.059,91.157L95.059,97.597L93.108,97.597L93.108,91.157ZM85.072,90.63C85.742,89.872 86.631,89.493 87.737,89.493C88.854,89.493 89.749,89.872 90.418,90.63C91.087,91.389 91.421,92.399 91.421,93.66C91.421,94.911 91.087,95.917 90.418,96.675C89.75,97.434 88.855,97.813 87.737,97.813C86.631,97.813 85.742,97.434 85.072,96.675C84.404,95.917 84.069,94.912 84.069,93.66C84.069,92.398 84.404,91.389 85.072,90.63ZM86.109,94.605C86.171,94.9 86.265,95.168 86.398,95.407C86.53,95.646 86.711,95.834 86.934,95.972C87.16,96.109 87.426,96.176 87.738,96.176C88.058,96.176 88.333,96.109 88.555,95.972C88.779,95.832 88.958,95.646 89.091,95.407C89.224,95.168 89.32,94.9 89.38,94.605C89.44,94.31 89.469,93.996 89.469,93.66C89.469,93.324 89.439,93.006 89.38,92.706C89.318,92.406 89.224,92.136 89.091,91.896C88.958,91.658 88.778,91.468 88.555,91.333C88.33,91.195 88.058,91.127 87.738,91.127C87.426,91.127 87.16,91.195 86.934,91.333C86.709,91.47 86.533,91.659 86.398,91.896C86.265,92.134 86.169,92.406 86.109,92.706C86.049,93.006 86.02,93.324 86.02,93.66C86.02,93.996 86.05,94.313 86.109,94.605ZM76.981,86.7L78.932,86.7L78.932,97.597L76.981,97.597L76.981,86.7ZM68.958,92.134C68.984,91.647 69.096,91.231 69.288,90.891C69.478,90.549 69.732,90.276 70.05,90.067C70.368,89.858 70.714,89.712 71.094,89.626C71.474,89.54 71.875,89.496 72.296,89.496C72.69,89.496 73.067,89.524 73.429,89.587C73.791,89.65 74.12,89.76 74.418,89.923C74.715,90.086 74.956,90.319 75.139,90.617C75.322,90.917 75.413,91.291 75.413,91.737L75.413,95.843C75.413,96.24 75.434,96.593 75.475,96.906C75.516,97.217 75.579,97.447 75.663,97.598L73.684,97.598C73.601,97.313 73.556,97.059 73.546,96.835C73.253,97.171 72.898,97.418 72.482,97.575C72.065,97.732 71.625,97.812 71.156,97.812C70.442,97.812 69.86,97.611 69.413,97.208C68.964,96.807 68.738,96.218 68.738,95.443C68.738,95.017 68.804,94.657 68.937,94.361C69.07,94.066 69.25,93.833 69.473,93.66C69.698,93.486 69.947,93.353 70.222,93.264C70.496,93.172 70.808,93.102 71.156,93.049C71.341,93.02 71.552,92.988 71.79,92.958C72.376,92.876 72.802,92.78 73.066,92.668C73.332,92.557 73.464,92.337 73.464,92.014C73.464,91.585 73.354,91.3 73.134,91.159C72.914,91.016 72.603,90.946 72.2,90.946C71.813,90.946 71.512,91.04 71.293,91.227C71.071,91.415 70.943,91.717 70.908,92.134L68.958,92.134ZM73.464,93.736C73.354,93.838 73.21,93.914 73.029,93.965C72.85,94.016 72.61,94.067 72.308,94.118C72.118,94.148 71.96,94.174 71.841,94.193C71.474,94.275 71.191,94.4 70.989,94.568C70.787,94.736 70.685,94.998 70.685,95.353C70.685,95.73 70.793,95.993 71.008,96.14C71.223,96.286 71.514,96.361 71.881,96.361C72.238,96.361 72.527,96.295 72.746,96.163C72.965,96.031 73.126,95.865 73.225,95.667C73.328,95.468 73.39,95.275 73.417,95.087C73.443,94.899 73.458,94.718 73.458,94.545L73.458,93.736L73.464,93.736ZM62.763,94.18C62.79,94.862 62.951,95.367 63.244,95.69C63.537,96.016 63.958,96.18 64.508,96.18C64.883,96.18 65.217,96.076 65.511,95.867C65.804,95.659 65.983,95.422 66.047,95.157L67.764,95.157C67.498,96.062 67.084,96.73 66.521,97.164C65.958,97.598 65.264,97.812 64.439,97.812C63.89,97.812 63.39,97.711 62.942,97.513C62.495,97.316 62.111,97.032 61.796,96.659C61.48,96.287 61.235,95.845 61.067,95.331C60.899,94.817 60.813,94.26 60.813,93.66C60.813,93.069 60.9,92.52 61.076,92.013C61.25,91.503 61.497,91.06 61.816,90.685C62.136,90.308 62.521,90.015 62.97,89.808C63.419,89.599 63.908,89.495 64.44,89.495C65.001,89.495 65.498,89.608 65.931,89.838C66.368,90.067 66.728,90.38 67.016,90.776C67.305,91.172 67.524,91.63 67.676,92.149C67.827,92.67 67.903,93.217 67.903,93.797C67.903,93.838 67.898,93.899 67.889,93.981L67.889,94.18L62.763,94.18ZM65.937,92.805C65.845,92.235 65.678,91.813 65.436,91.538C65.193,91.264 64.843,91.126 64.385,91.126C64.092,91.126 63.842,91.182 63.636,91.294C63.43,91.406 63.263,91.548 63.135,91.721C63.007,91.895 62.915,92.075 62.86,92.264C62.805,92.452 62.773,92.632 62.764,92.805L65.937,92.805ZM53.917,93.98C53.917,94.662 54.121,95.168 54.526,95.499C54.933,95.83 55.455,95.995 56.087,95.995C56.297,95.995 56.51,95.974 56.726,95.933C56.942,95.894 57.147,95.822 57.344,95.72C57.541,95.616 57.699,95.478 57.818,95.298C57.937,95.12 57.998,94.9 57.998,94.634C57.998,94.39 57.936,94.185 57.818,94.017C57.701,93.849 57.54,93.705 57.339,93.588C57.137,93.472 56.918,93.372 56.68,93.291C56.442,93.209 56.121,93.118 55.718,93.017C55.452,92.935 55.242,92.873 55.086,92.833C54.653,92.701 54.273,92.562 53.944,92.421C53.617,92.279 53.314,92.095 53.046,91.864C52.775,91.635 52.561,91.344 52.4,90.994C52.239,90.644 52.161,90.223 52.161,89.733C52.161,89.196 52.264,88.715 52.47,88.298C52.676,87.881 52.955,87.535 53.308,87.26C53.661,86.987 54.054,86.781 54.489,86.643C54.926,86.505 55.372,86.436 55.83,86.436C56.359,86.436 56.861,86.502 57.334,86.635C57.806,86.766 58.222,86.975 58.584,87.26C58.944,87.545 59.23,87.911 59.441,88.36C59.651,88.807 59.757,89.338 59.757,89.948L57.669,89.948C57.642,89.337 57.456,88.91 57.111,88.666C56.767,88.422 56.307,88.3 55.73,88.3C55.329,88.3 54.979,88.404 54.686,88.607C54.393,88.81 54.248,89.121 54.248,89.538C54.248,89.751 54.285,89.922 54.356,90.049C54.429,90.176 54.557,90.288 54.743,90.385C54.926,90.483 55.169,90.581 55.471,90.682C55.773,90.786 56.268,90.932 56.954,91.125C56.98,91.125 57.055,91.146 57.174,91.186C57.202,91.196 57.229,91.203 57.257,91.203C57.587,91.295 57.889,91.395 58.164,91.508C58.437,91.62 58.727,91.791 59.027,92.021C59.331,92.25 59.583,92.56 59.785,92.952C59.984,93.344 60.087,93.814 60.087,94.363C60.087,95.402 59.73,96.244 59.015,96.888C58.301,97.534 57.298,97.859 56.007,97.859C55.446,97.859 54.92,97.783 54.42,97.63C53.921,97.477 53.477,97.24 53.087,96.92C52.696,96.6 52.391,96.191 52.167,95.699C51.94,95.206 51.83,94.633 51.83,93.982L53.92,93.982L53.917,93.982L53.917,93.98ZM98.286,38.18L100.335,38.18L100.335,49.628L98.286,49.628L98.286,38.18ZM89.858,43.888C89.887,43.375 90.004,42.94 90.206,42.581C90.408,42.223 90.675,41.935 91.007,41.715C91.339,41.495 91.704,41.341 92.104,41.25C92.503,41.16 92.924,41.114 93.369,41.114C93.781,41.114 94.18,41.146 94.557,41.21C94.937,41.274 95.286,41.392 95.596,41.563C95.909,41.734 96.161,41.977 96.354,42.292C96.547,42.607 96.642,43 96.642,43.47L96.642,47.783C96.642,48.2 96.663,48.571 96.707,48.897C96.75,49.223 96.813,49.466 96.9,49.626L94.824,49.626C94.736,49.327 94.687,49.06 94.678,48.824C94.37,49.177 93.997,49.436 93.56,49.602C93.123,49.768 92.66,49.851 92.167,49.851C91.417,49.851 90.806,49.64 90.334,49.218C89.86,48.796 89.627,48.178 89.627,47.366C89.627,46.917 89.694,46.538 89.836,46.227C89.976,45.917 90.163,45.671 90.399,45.49C90.634,45.308 90.897,45.169 91.186,45.073C91.475,44.977 91.801,44.902 92.167,44.848C92.357,44.816 92.581,44.784 92.831,44.752C93.444,44.667 93.894,44.565 94.173,44.448C94.452,44.33 94.591,44.1 94.591,43.759C94.591,43.31 94.476,43.01 94.245,42.861C94.014,42.711 93.685,42.636 93.264,42.636C92.86,42.636 92.543,42.735 92.312,42.932C92.083,43.13 91.946,43.448 91.91,43.886L89.858,43.886L89.858,43.888ZM94.591,45.572C94.476,45.679 94.324,45.759 94.136,45.813C93.948,45.867 93.696,45.92 93.379,45.973C93.177,46.005 93.013,46.032 92.888,46.053C92.503,46.139 92.205,46.27 91.993,46.446C91.781,46.622 91.675,46.898 91.675,47.272C91.675,47.668 91.788,47.943 92.014,48.098C92.242,48.253 92.545,48.33 92.93,48.33C93.305,48.33 93.609,48.261 93.839,48.122C94.068,47.983 94.236,47.809 94.344,47.601C94.449,47.393 94.517,47.19 94.546,46.992C94.575,46.794 94.589,46.605 94.589,46.423L94.589,45.572L94.591,45.572ZM81.388,41.339L83.336,41.339L83.336,42.493L83.379,42.493C83.629,42.044 83.959,41.702 84.368,41.467C84.775,41.232 85.207,41.114 85.66,41.114C86.187,41.114 86.632,41.195 86.986,41.355C87.341,41.515 87.625,41.743 87.832,42.037C88.039,42.331 88.183,42.683 88.265,43.095C88.347,43.507 88.388,43.985 88.388,44.532L88.388,49.631L86.339,49.631L86.339,44.949C86.339,44.255 86.236,43.741 86.036,43.41C85.834,43.079 85.497,42.913 85.024,42.913C84.466,42.913 84.062,43.098 83.812,43.466C83.562,43.835 83.437,44.442 83.437,45.286L83.437,49.631L81.39,49.631L81.39,41.341L81.388,41.339ZM79.772,40.056L77.723,40.056L77.723,38.18L79.772,38.18L79.772,40.056ZM77.723,41.339L79.772,41.339L79.772,49.629L77.723,49.629L77.723,41.339ZM76.02,49.099C76.02,49.516 75.974,49.928 75.883,50.334C75.792,50.74 75.611,51.13 75.342,51.504C75.071,51.878 74.675,52.183 74.152,52.418C73.63,52.653 72.964,52.771 72.153,52.771C71.768,52.771 71.385,52.717 71.007,52.611C70.627,52.504 70.278,52.343 69.968,52.13C69.655,51.916 69.398,51.638 69.196,51.296C68.996,50.954 68.883,50.559 68.864,50.109L70.899,50.109C70.985,50.515 71.165,50.807 71.433,50.983C71.704,51.159 72.036,51.248 72.429,51.248C72.977,51.248 73.389,51.063 73.663,50.695C73.935,50.326 74.072,49.826 74.072,49.195L74.072,48.105L74.045,48.105C73.834,48.522 73.523,48.84 73.112,49.059C72.705,49.278 72.268,49.388 71.806,49.388C71.267,49.388 70.794,49.282 70.385,49.068C69.976,48.854 69.642,48.558 69.382,48.178C69.122,47.799 68.93,47.358 68.805,46.855C68.68,46.352 68.617,45.808 68.617,45.22C68.617,44.675 68.685,44.157 68.826,43.665C68.965,43.173 69.172,42.735 69.444,42.35C69.718,41.965 70.055,41.663 70.456,41.444C70.853,41.225 71.31,41.115 71.818,41.115C72.33,41.115 72.765,41.219 73.131,41.428C73.497,41.637 73.799,41.976 74.04,42.446L74.067,42.446L74.067,41.34L76.015,41.34L76.015,49.099L76.02,49.099ZM73.617,46.999C73.92,46.55 74.07,46.01 74.07,45.379C74.07,45.026 74.041,44.698 73.976,44.393C73.913,44.088 73.815,43.818 73.68,43.583C73.545,43.348 73.367,43.164 73.139,43.03C72.913,42.897 72.641,42.83 72.326,42.83C71.776,42.83 71.362,43.055 71.085,43.503C70.806,43.952 70.667,44.513 70.667,45.187C70.667,45.508 70.694,45.812 70.753,46.101C70.81,46.39 70.902,46.652 71.034,46.887C71.164,47.122 71.337,47.312 71.554,47.456C71.771,47.6 72.028,47.672 72.326,47.672C72.884,47.672 73.314,47.448 73.617,46.999ZM67.232,40.056L65.183,40.056L65.183,38.18L67.232,38.18L67.232,40.056ZM65.183,41.339L67.232,41.339L67.232,49.629L65.183,49.629L65.183,41.339ZM59.511,41.339L61.46,41.339L61.46,42.878L61.487,42.878C61.672,42.365 61.987,41.943 62.439,41.611C62.891,41.28 63.369,41.114 63.87,41.114C64.022,41.114 64.173,41.141 64.315,41.195L64.315,43.311C64.229,43.29 64.117,43.271 63.976,43.255C63.836,43.239 63.705,43.231 63.58,43.231C62.878,43.231 62.365,43.474 62.043,43.96C61.72,44.446 61.56,45.09 61.56,45.892L61.56,49.628L59.511,49.628L59.511,41.339ZM48.4,41.58C48.631,40.842 48.965,40.199 49.403,39.648C49.841,39.097 50.377,38.67 51.007,38.365C51.637,38.06 52.341,37.908 53.121,37.908C53.899,37.908 54.603,38.06 55.233,38.365C55.863,38.67 56.4,39.097 56.842,39.648C57.284,40.199 57.619,40.842 57.845,41.58C58.071,42.317 58.184,43.108 58.184,43.953C58.184,44.776 58.071,45.548 57.845,46.27C57.619,46.991 57.284,47.624 56.842,48.17C56.4,48.715 55.863,49.14 55.233,49.444C54.603,49.749 53.898,49.901 53.121,49.901C52.342,49.901 51.637,49.749 51.007,49.444C50.377,49.139 49.843,48.717 49.403,48.177C48.965,47.637 48.632,47.004 48.4,46.277C48.171,45.55 48.054,44.776 48.054,43.952C48.054,43.108 48.169,42.317 48.4,41.58ZM50.478,45.388C50.584,45.842 50.749,46.251 50.976,46.615C51.204,46.978 51.495,47.264 51.849,47.472C52.204,47.68 52.628,47.785 53.12,47.785C53.609,47.785 54.037,47.678 54.395,47.464C54.755,47.25 55.046,46.964 55.268,46.606C55.491,46.248 55.653,45.842 55.759,45.388C55.864,44.933 55.918,44.455 55.918,43.953C55.918,43.429 55.865,42.932 55.759,42.462C55.653,41.992 55.489,41.575 55.268,41.211C55.046,40.848 54.756,40.559 54.395,40.345C54.036,40.132 53.608,40.024 53.12,40.024C52.63,40.024 52.204,40.131 51.843,40.345C51.482,40.559 51.191,40.847 50.97,41.211C50.748,41.575 50.585,41.992 50.479,42.462C50.375,42.932 50.32,43.429 50.32,43.953C50.319,44.455 50.372,44.933 50.478,45.388ZM109.343,79.879C115.796,79.879 121.051,74.627 121.051,68.171C121.051,61.715 115.796,56.462 109.343,56.462L39.242,56.462C32.786,56.462 27.534,61.715 27.534,68.171C27.534,74.627 32.786,79.879 39.242,79.879L109.343,79.879ZM39.242,76.838C34.463,76.838 30.574,72.95 30.574,68.171C30.574,63.392 34.463,59.503 39.242,59.503L109.344,59.503C114.121,59.503 118.011,63.392 118.011,68.171C118.011,72.95 114.123,76.838 109.344,76.838L39.242,76.838Z" style="fill:rgb(131,115,45);fill-rule:nonzero;"/>
        </g>
    </g>
    <g transform="matrix(1,0,0,1,-0.163809,-2.39937)">
        <g transform="matrix(10,0,0,10,36.0665,73.5)">
            <path d="M0.48,0.2L0.659,0.2L0.804,-0.251L0.804,0.2L1.138,0.2L1.138,-0.802L0.804,-0.802L0.569,-0.074L0.335,-0.802L0,-0.802L0,0.2L0.334,0.2L0.334,-0.252L0.48,0.2Z" style="fill:rgb(131,115,45);fill-rule:nonzero;"/>
        </g>
        <g transform="matrix(10,0,0,10,49.3065,73.5)">
            <path d="M0.34,0.003L0.341,-0.28C0.341,-0.386 0.409,-0.429 0.474,-0.429C0.539,-0.429 0.607,-0.386 0.607,-0.28L0.607,0.003C0.607,0.109 0.539,0.153 0.474,0.153C0.409,0.153 0.34,0.109 0.34,0.003ZM0.476,-0.512C0.213,-0.512 0,-0.345 0,-0.138C0,0.069 0.213,0.236 0.476,0.236C0.739,0.236 0.952,0.069 0.952,-0.138C0.952,-0.345 0.739,-0.512 0.476,-0.512Z" style="fill:rgb(131,115,45);fill-rule:nonzero;"/>
        </g>
        <g transform="matrix(10,0,0,10,59.8865,73.5)">
            <path d="M0.589,-0.497C0.478,-0.497 0.386,-0.453 0.323,-0.397L0.323,-0.466L-0.001,-0.466L0,0.2L0.323,0.2C0.323,0.2 0.322,-0.209 0.322,-0.237C0.322,-0.296 0.388,-0.361 0.477,-0.361L0.589,-0.361L0.589,-0.497Z" style="fill:rgb(131,115,45);fill-rule:nonzero;"/>
        </g>
        <g transform="matrix(10,0,0,10,66.8365,73.5)">
            <path d="M0.176,0.2L0.502,0.2L0.502,-0.465L0.677,-0.465L0.677,-0.564L0.502,-0.564L0.502,-0.699L0.176,-0.699L0.176,-0.564L0,-0.564L0,-0.465L0.176,-0.465L0.176,0.2Z" style="fill:rgb(131,115,45);fill-rule:nonzero;"/>
        </g>
        <g transform="matrix(10,0,0,10,74.6665,73.5)">
            <path d="M0,-0.598L0.326,-0.598L0.326,-0.802L0,-0.802L0,-0.598ZM0.001,0.2L0.326,0.2L0.326,-0.466L0.001,-0.466L0.001,0.2Z" style="fill:rgb(131,115,45);fill-rule:nonzero;"/>
        </g>
        <g transform="matrix(10,0,0,10,79.7265,73.5)">
            <path d="M0.887,0.2L0.887,-0.238C0.887,-0.306 0.941,-0.361 1.008,-0.361C1.075,-0.361 1.128,-0.306 1.128,-0.238L1.128,0.2L1.451,0.2L1.451,-0.163C1.451,-0.347 1.29,-0.497 1.091,-0.497C0.979,-0.497 0.879,-0.449 0.814,-0.375C0.734,-0.466 0.607,-0.497 0.527,-0.497C0.448,-0.497 0.379,-0.475 0.323,-0.442L0.323,-0.466L-0.001,-0.466L0,0.2L0.323,0.2L0.323,-0.237C0.323,-0.306 0.377,-0.361 0.444,-0.361C0.507,-0.361 0.557,-0.313 0.563,-0.251L0.564,0.2L0.887,0.2Z" style="fill:rgb(131,115,45);fill-rule:nonzero;"/>
        </g>
        <g transform="matrix(10,0,0,10,95.2965,73.5)">
            <path d="M0.616,-0.033C0.616,-0.033 0.617,-0.03 0.617,0.007C0.617,0.129 0.53,0.156 0.482,0.156C0.434,0.156 0.346,0.129 0.346,0.007L0.346,-0.13L0.959,-0.13C0.959,-0.337 0.744,-0.508 0.479,-0.508C0.214,-0.508 0,-0.341 0,-0.134C0,0.073 0.214,0.24 0.479,0.24C0.699,0.24 0.884,0.124 0.941,-0.033L0.616,-0.033ZM0.617,-0.277C0.617,-0.24 0.618,-0.241 0.618,-0.234L0.346,-0.234L0.346,-0.277C0.346,-0.399 0.434,-0.426 0.482,-0.426C0.53,-0.426 0.617,-0.399 0.617,-0.277Z" style="fill:rgb(131,115,45);fill-rule:nonzero;"/>
        </g>
        <g transform="matrix(10,0,0,10,105.877,73.5)">
            <path d="M0.589,-0.497C0.478,-0.497 0.386,-0.453 0.323,-0.397L0.323,-0.466L-0.001,-0.466L0,0.2L0.323,0.2C0.323,0.2 0.322,-0.209 0.322,-0.237C0.322,-0.296 0.388,-0.361 0.477,-0.361L0.589,-0.361L0.589,-0.497Z" style="fill:rgb(131,115,45);fill-rule:nonzero;"/>
        </g>
    </g>
</svg>
